<svg width="75" height="75" viewBox="0 0 75 75" fill="none" xmlns="http://www.w3.org/2000/svg">
<path d="M63.3137 37.0617C62.0268 37.0617 60.9335 36.6118 60.0337 35.712C59.1339 34.8123 58.683 33.7179 58.6809 32.429V13.8981C58.6809 12.6112 59.1318 11.5179 60.0337 10.6181C60.9355 9.71836 62.0288 9.26745 63.3137 9.26539C64.5985 9.26333 65.6928 9.71425 66.5967 10.6181C67.5006 11.522 67.9505 12.6154 67.9464 13.8981V32.429C67.9464 33.7159 67.4965 34.8102 66.5967 35.712C65.6969 36.6139 64.6026 37.0638 63.3137 37.0617ZM30.8846 37.0617C27.4873 37.0617 24.579 35.8521 22.1596 33.4327C19.7403 31.0134 18.5307 28.1051 18.5307 24.7078C18.5307 21.3105 19.7403 18.4021 22.1596 15.9828C24.579 13.5635 27.4873 12.3539 30.8846 12.3539C34.2819 12.3539 37.1903 13.5635 39.6096 15.9828C42.0289 18.4021 43.2385 21.3105 43.2385 24.7078C43.2385 28.1051 42.0289 31.0134 39.6096 33.4327C37.1903 35.8521 34.2819 37.0617 30.8846 37.0617ZM6.17676 61.7696V53.1218C6.17676 51.3717 6.61429 49.7636 7.48936 48.2976C8.36443 46.8316 9.57409 45.7115 11.1183 44.9373C14.2068 43.3931 17.4116 42.2092 20.7328 41.3856C24.0539 40.562 27.4379 40.1502 30.8846 40.1502C34.3313 40.1502 37.7163 40.562 41.0395 41.3856C44.3627 42.2092 47.5665 43.3931 50.6509 44.9373C52.1951 45.7095 53.4048 46.8295 54.2798 48.2976C55.1549 49.7657 55.5924 51.3737 55.5924 53.1218V61.7696H6.17676ZM12.3537 55.5926H49.4155V53.1218C49.4155 52.5556 49.2868 52.0408 49.0294 51.5776C48.7721 51.1143 48.386 50.754 47.8712 50.4966C45.246 49.1583 42.5055 48.1288 39.6497 47.4081C36.7939 46.6875 33.8722 46.3272 30.8846 46.3272C27.897 46.3272 24.9753 46.6875 22.1195 47.4081C19.2637 48.1288 16.5232 49.1583 13.898 50.4966C13.3832 50.754 12.9972 51.1143 12.7398 51.5776C12.4824 52.0408 12.3537 52.5556 12.3537 53.1218V55.5926ZM30.8846 30.8848C32.5833 30.8848 34.0379 30.2804 35.2486 29.0718C36.4593 27.8632 37.0636 26.4085 37.0616 24.7078C37.0595 23.0071 36.4552 21.5534 35.2486 20.3469C34.0421 19.1403 32.5874 18.5349 30.8846 18.5308C29.1818 18.5267 27.7282 19.1321 26.5237 20.3469C25.3192 21.5617 24.7138 23.0153 24.7076 24.7078C24.7015 26.4003 25.3068 27.855 26.5237 29.0718C27.7405 30.2887 29.1942 30.893 30.8846 30.8848Z" fill="#F3D70D"/>
</svg>
