<svg width="75" height="75" viewBox="0 0 75 75" fill="none" xmlns="http://www.w3.org/2000/svg">
<path fill-rule="evenodd" clip-rule="evenodd" d="M12.4743 9.35557C12.4743 8.52849 12.1458 7.73528 11.5609 7.15045C10.9761 6.56562 10.1829 6.23706 9.35581 6.23706C8.52873 6.23706 7.73553 6.56562 7.15069 7.15045C6.56586 7.73528 6.2373 8.52849 6.2373 9.35557V62.9939C6.2373 64.4827 6.82871 65.9104 7.88141 66.9632C8.93411 68.0159 10.3619 68.6073 11.8506 68.6073H65.489C66.3161 68.6073 67.1093 68.2787 67.6941 67.6939C68.2789 67.109 68.6075 66.3158 68.6075 65.4887C68.6075 64.6617 68.2789 63.8685 67.6941 63.2836C67.1093 62.6988 66.3161 62.3702 65.489 62.3702H12.4743V9.35557ZM67.6938 24.0344C68.2618 23.4462 68.5762 22.6585 68.5691 21.8408C68.562 21.0232 68.234 20.241 67.6558 19.6628C67.0776 19.0846 66.2954 18.7566 65.4778 18.7495C64.6601 18.7424 63.8724 19.0568 63.2842 19.6248L43.6594 39.2496L33.3902 28.9804C32.8054 28.3957 32.0123 28.0673 31.1854 28.0673C30.3585 28.0673 29.5654 28.3957 28.9806 28.9804L16.5066 41.4544C16.2087 41.7421 15.9711 42.0862 15.8077 42.4666C15.6443 42.8471 15.5582 43.2563 15.5546 43.6704C15.551 44.0845 15.6299 44.4951 15.7867 44.8784C15.9435 45.2616 16.1751 45.6098 16.4679 45.9026C16.7607 46.1954 17.1089 46.427 17.4922 46.5838C17.8754 46.7406 18.286 46.8195 18.7001 46.8159C19.1142 46.8123 19.5234 46.7263 19.9039 46.5628C20.2843 46.3994 20.6285 46.1618 20.9161 45.864L31.1854 35.5947L41.4546 45.864C42.0394 46.4486 42.8325 46.777 43.6594 46.777C44.4863 46.777 45.2794 46.4486 45.8642 45.864L67.6938 24.0344Z" fill="#F3D70D"/>
</svg>
