<svg width="64" height="64" viewBox="0 0 64 64" fill="none" xmlns="http://www.w3.org/2000/svg">
<g clip-path="url(#clip0_3005_8441)">
<path d="M31.5779 47.3665V60.8998M31.5779 47.3665C37.56 47.3665 43.2971 44.9902 47.527 40.7602C51.757 36.5302 54.1334 30.7932 54.1334 24.8111M31.5779 47.3665C25.5958 47.3665 19.8588 44.9902 15.6288 40.7602C11.3988 36.5302 9.02246 30.7932 9.02246 24.8111M9.02246 60.8998H54.1334M54.1334 24.8111C54.1334 18.829 51.757 13.0919 47.527 8.86196C43.2971 4.63199 37.56 2.25562 31.5779 2.25562C25.5958 2.25562 19.8588 4.63199 15.6288 8.86196C11.3988 13.0919 9.02246 18.829 9.02246 24.8111M54.1334 24.8111H9.02246" stroke="#F3D70D" stroke-width="4.51109" stroke-linecap="round" stroke-linejoin="round"/>
<path d="M31.578 47.3665C45.1113 31.9386 45.1113 16.8715 31.578 2.25562C18.3154 16.3302 18.0447 31.307 31.578 47.3665Z" stroke="#F3D70D" stroke-width="4.51109" stroke-linecap="round" stroke-linejoin="round"/>
</g>
<defs>
<clipPath id="clip0_3005_8441">
<rect width="63.1553" height="63.1553" fill="white"/>
</clipPath>
</defs>
</svg>
