<svg width="66" height="66" viewBox="0 0 66 66" fill="none" xmlns="http://www.w3.org/2000/svg">
<path d="M16.5005 60.5035C14.2087 60.5035 12.2607 59.7014 10.6564 58.0971C9.05213 56.4928 8.25 54.5448 8.25 52.253V44.0025H16.5005V5.50024L20.6257 9.62549L24.751 5.50024L28.8762 9.62549L33.0015 5.50024L37.1267 9.62549L41.252 5.50024L45.3772 9.62549L49.5024 5.50024L53.6277 9.62549L57.7529 5.50024V52.253C57.7529 54.5448 56.9508 56.4928 55.3465 58.0971C53.7423 59.7014 51.7942 60.5035 49.5024 60.5035H16.5005ZM49.5024 55.0032C50.2817 55.0032 50.9348 54.7396 51.4619 54.2125C51.989 53.6854 52.2526 53.0322 52.2526 52.253V13.7507H22.0008V44.0025H46.7523V52.253C46.7523 53.0322 47.0158 53.6854 47.5429 54.2125C48.0701 54.7396 48.7232 55.0032 49.5024 55.0032ZM24.751 24.7514V19.2511H41.252V24.7514H24.751ZM24.751 33.0019V27.5015H41.252V33.0019H24.751ZM46.7523 24.7514C45.9731 24.7514 45.3199 24.4878 44.7928 23.9607C44.2657 23.4336 44.0021 22.7804 44.0021 22.0012C44.0021 21.222 44.2657 20.5688 44.7928 20.0417C45.3199 19.5146 45.9731 19.2511 46.7523 19.2511C47.5315 19.2511 48.1847 19.5146 48.7118 20.0417C49.2389 20.5688 49.5024 21.222 49.5024 22.0012C49.5024 22.7804 49.2389 23.4336 48.7118 23.9607C48.1847 24.4878 47.5315 24.7514 46.7523 24.7514ZM46.7523 33.0019C45.9731 33.0019 45.3199 32.7383 44.7928 32.2112C44.2657 31.6841 44.0021 31.0309 44.0021 30.2517C44.0021 29.4725 44.2657 28.8193 44.7928 28.2922C45.3199 27.7651 45.9731 27.5015 46.7523 27.5015C47.5315 27.5015 48.1847 27.7651 48.7118 28.2922C49.2389 28.8193 49.5024 29.4725 49.5024 30.2517C49.5024 31.0309 49.2389 31.6841 48.7118 32.2112C48.1847 32.7383 47.5315 33.0019 46.7523 33.0019ZM16.5005 55.0032H41.252V49.5028H13.7503V52.253C13.7503 53.0322 14.0139 53.6854 14.541 54.2125C15.0681 54.7396 15.7213 55.0032 16.5005 55.0032Z" fill="#F3D70D"/>
</svg>
