<svg width="63" height="63" viewBox="0 0 63 63" fill="none" xmlns="http://www.w3.org/2000/svg">
<path fill-rule="evenodd" clip-rule="evenodd" d="M31.1446 7.78617C27.0146 7.78617 23.0538 9.42681 20.1335 12.3471C17.2131 15.2675 15.5725 19.2283 15.5725 23.3583V44.1212H2.5957V23.3583H10.3818C10.3818 17.8517 12.5693 12.5705 16.4631 8.67676C20.3569 4.78297 25.638 2.59546 31.1446 2.59546C36.6513 2.59546 41.9324 4.78297 45.8262 8.67676C49.72 12.5705 51.9075 17.8517 51.9075 23.3583H59.6936V44.1212H51.9075C51.9075 47.5628 50.5403 50.8635 48.1067 53.2971C45.6731 55.7308 42.3724 57.098 38.9307 57.098V59.6933H23.3586V49.3119H38.9307V51.9072C40.9957 51.9072 42.9761 51.0869 44.4363 49.6268C45.8965 48.1666 46.7168 46.1862 46.7168 44.1212V23.3583C46.7168 19.2283 45.0761 15.2675 42.1558 12.3471C39.2355 9.42681 35.2746 7.78617 31.1446 7.78617Z" fill="#F3D70D"/>
</svg>
