<svg width="66" height="66" viewBox="0 0 66 66" fill="none" xmlns="http://www.w3.org/2000/svg">
<path d="M32.8618 30.1238C36.4933 30.1238 39.9761 31.5664 42.544 34.1343C45.1118 36.7021 46.5544 40.1849 46.5544 43.8164V60.2476H41.0774V43.8164C41.0775 41.7209 40.2769 39.7045 38.8392 38.1798C37.4016 36.6551 35.4357 35.7375 33.3438 35.6145L32.8618 35.6008C30.7663 35.6007 28.7499 36.4014 27.2252 37.839C25.7006 39.2766 24.7829 41.2425 24.6599 43.3344L24.6462 43.8164V60.2476H19.1692V43.8164C19.1692 40.1849 20.6118 36.7021 23.1797 34.1343C25.7475 31.5664 29.2303 30.1238 32.8618 30.1238ZM15.0614 38.3394C15.8282 38.3412 16.5676 38.427 17.2796 38.5968C16.8131 39.9911 16.5359 41.4418 16.4553 42.91L16.4307 43.8164V44.0519C16.1158 43.9395 15.7884 43.8659 15.4557 43.8328L15.0614 43.8164C14.0407 43.8164 13.0565 44.1964 12.3007 44.8824C11.5448 45.5684 11.0715 46.5112 10.9728 47.5271L10.9536 47.9242V60.2476H5.47656V47.9242C5.47656 45.3821 6.48639 42.9442 8.2839 41.1467C10.0814 39.3492 12.5193 38.3394 15.0614 38.3394ZM50.6622 38.3394C53.2043 38.3394 55.6422 39.3492 57.4397 41.1467C59.2372 42.9442 60.2471 45.3821 60.2471 47.9242V60.2476H54.77V47.9242C54.77 46.9035 54.39 45.9193 53.7041 45.1635C53.0181 44.4076 52.0753 43.9342 51.0593 43.8356L50.6622 43.8164C50.1803 43.8182 49.7238 43.8958 49.293 44.0492V43.8164C49.293 41.9925 48.9972 40.2399 48.4495 38.6023C49.156 38.4297 49.9009 38.3394 50.6622 38.3394ZM15.0614 21.9082C16.8772 21.9082 18.6185 22.6295 19.9025 23.9134C21.1864 25.1974 21.9077 26.9388 21.9077 28.7545C21.9077 30.5703 21.1864 32.3117 19.9025 33.5956C18.6185 34.8795 16.8772 35.6008 15.0614 35.6008C13.2456 35.6008 11.5043 34.8795 10.2203 33.5956C8.93639 32.3117 8.21509 30.5703 8.21509 28.7545C8.21509 26.9388 8.93639 25.1974 10.2203 23.9134C11.5043 22.6295 13.2456 21.9082 15.0614 21.9082ZM50.6622 21.9082C52.478 21.9082 54.2194 22.6295 55.5033 23.9134C56.7872 25.1974 57.5085 26.9388 57.5085 28.7545C57.5085 30.5703 56.7872 32.3117 55.5033 33.5956C54.2194 34.8795 52.478 35.6008 50.6622 35.6008C48.8465 35.6008 47.1051 34.8795 45.8212 33.5956C44.5372 32.3117 43.8159 30.5703 43.8159 28.7545C43.8159 26.9388 44.5372 25.1974 45.8212 23.9134C47.1051 22.6295 48.8465 21.9082 50.6622 21.9082ZM15.0614 27.3853C14.6983 27.3853 14.35 27.5295 14.0932 27.7863C13.8364 28.0431 13.6921 28.3914 13.6921 28.7545C13.6921 29.1177 13.8364 29.4659 14.0932 29.7227C14.35 29.9795 14.6983 30.1238 15.0614 30.1238C15.4246 30.1238 15.7728 29.9795 16.0296 29.7227C16.2864 29.4659 16.4307 29.1177 16.4307 28.7545C16.4307 28.3914 16.2864 28.0431 16.0296 27.7863C15.7728 27.5295 15.4246 27.3853 15.0614 27.3853ZM50.6622 27.3853C50.2991 27.3853 49.9508 27.5295 49.694 27.7863C49.4372 28.0431 49.293 28.3914 49.293 28.7545C49.293 29.1177 49.4372 29.4659 49.694 29.7227C49.9508 29.9795 50.2991 30.1238 50.6622 30.1238C51.0254 30.1238 51.3737 29.9795 51.6304 29.7227C51.8872 29.4659 52.0315 29.1177 52.0315 28.7545C52.0315 28.3914 51.8872 28.0431 51.6304 27.7863C51.3737 27.5295 51.0254 27.3853 50.6622 27.3853ZM32.8618 5.47705C35.767 5.47705 38.5532 6.63114 40.6075 8.68543C42.6618 10.7397 43.8159 13.5259 43.8159 16.4312C43.8159 19.3364 42.6618 22.1226 40.6075 24.1769C38.5532 26.2312 35.767 27.3853 32.8618 27.3853C29.9566 27.3853 27.1704 26.2312 25.1161 24.1769C23.0618 22.1226 21.9077 19.3364 21.9077 16.4312C21.9077 13.5259 23.0618 10.7397 25.1161 8.68543C27.1704 6.63114 29.9566 5.47705 32.8618 5.47705ZM32.8618 10.9541C31.4092 10.9541 30.0161 11.5311 28.989 12.5583C27.9618 13.5854 27.3848 14.9785 27.3848 16.4312C27.3848 17.8838 27.9618 19.2769 28.989 20.304C30.0161 21.3312 31.4092 21.9082 32.8618 21.9082C34.3144 21.9082 35.7075 21.3312 36.7347 20.304C37.7618 19.2769 38.3389 17.8838 38.3389 16.4312C38.3389 14.9785 37.7618 13.5854 36.7347 12.5583C35.7075 11.5311 34.3144 10.9541 32.8618 10.9541Z" fill="#F3D70D"/>
</svg>
